<?xml version="1.0" standalone="no"?>
<svg xmlns:xlink="http://www.w3.org/1999/xlink" id="wave" style="transform:rotate(0deg); transition: 0.3s" viewBox="0 0 1440 180" version="1.1" xmlns="http://www.w3.org/2000/svg"><defs><linearGradient id="sw-gradient-0" x1="0" x2="0" y1="1" y2="0"><stop stop-color="rgba(244, 244, 244, 1)" offset="0%"/><stop stop-color="rgba(244, 244, 244, 1)" offset="100%"/></linearGradient></defs><path style="transform:translate(0, 0px); opacity:1" fill="url(#sw-gradient-0)" d="M0,144L1440,54L2880,36L4320,18L5760,90L7200,144L8640,90L10080,126L11520,162L12960,0L14400,36L15840,72L17280,126L18720,126L20160,144L21600,90L23040,126L24480,126L25920,18L27360,36L28800,36L30240,162L31680,0L33120,126L34560,72L34560,180L33120,180L31680,180L30240,180L28800,180L27360,180L25920,180L24480,180L23040,180L21600,180L20160,180L18720,180L17280,180L15840,180L14400,180L12960,180L11520,180L10080,180L8640,180L7200,180L5760,180L4320,180L2880,180L1440,180L0,180Z"/></svg>