<?xml version="1.0" standalone="no"?>
<svg xmlns:xlink="http://www.w3.org/1999/xlink" id="wave" style="transform:rotate(0deg); transition: 0.3s" viewBox="0 0 1440 350" version="1.1" xmlns="http://www.w3.org/2000/svg"><defs><linearGradient id="sw-gradient-0" x1="0" x2="0" y1="1" y2="0"><stop stop-color="rgba(0, 0, 0, 0)" offset="0%"/><stop stop-color="rgba(0, 0, 0, 0)" offset="100%"/></linearGradient></defs><path style="transform:translate(0, 0px); opacity:1" fill="url(#sw-gradient-0)" d="M0,280L1440,35L2880,70L4320,35L5760,140L7200,175L8640,175L10080,280L11520,35L12960,35L14400,0L15840,280L17280,280L18720,245L20160,175L21600,175L23040,105L24480,140L25920,140L27360,315L28800,175L30240,140L31680,140L33120,175L34560,105L34560,350L33120,350L31680,350L30240,350L28800,350L27360,350L25920,350L24480,350L23040,350L21600,350L20160,350L18720,350L17280,350L15840,350L14400,350L12960,350L11520,350L10080,350L8640,350L7200,350L5760,350L4320,350L2880,350L1440,350L0,350Z"/></svg>