<?xml version="1.0" standalone="no"?>
<svg xmlns:xlink="http://www.w3.org/1999/xlink" id="wave" style="transform:rotate(0deg); transition: 0.3s" viewBox="0 0 1440 280" version="1.1" xmlns="http://www.w3.org/2000/svg"><defs><linearGradient id="sw-gradient-0" x1="0" x2="0" y1="1" y2="0"><stop stop-color="rgba(244, 244, 244, 1)" offset="0%"/><stop stop-color="rgba(244, 244, 244, 1)" offset="100%"/></linearGradient></defs><path style="transform:translate(0, 0px); opacity:1" fill="url(#sw-gradient-0)" d="M0,112L1440,0L2880,252L4320,196L5760,28L7200,0L8640,28L10080,112L11520,0L12960,28L14400,196L15840,84L17280,252L18720,84L20160,28L21600,112L23040,0L24480,84L25920,252L27360,84L28800,84L30240,196L31680,196L33120,252L34560,140L34560,280L33120,280L31680,280L30240,280L28800,280L27360,280L25920,280L24480,280L23040,280L21600,280L20160,280L18720,280L17280,280L15840,280L14400,280L12960,280L11520,280L10080,280L8640,280L7200,280L5760,280L4320,280L2880,280L1440,280L0,280Z"/></svg>