<?xml version="1.0" standalone="no"?>
<svg xmlns:xlink="http://www.w3.org/1999/xlink" id="wave" style="transform:rotate(180deg); transition: 0.3s" viewBox="0 0 1440 430" version="1.1" xmlns="http://www.w3.org/2000/svg"><defs><linearGradient id="sw-gradient-0" x1="0" x2="0" y1="1" y2="0"><stop stop-color="rgba(244, 244, 244, 1)" offset="0%"/><stop stop-color="rgba(244, 244, 244, 1)" offset="100%"/></linearGradient></defs><path style="transform:translate(0, 0px); opacity:1" fill="url(#sw-gradient-0)" d="M0,344L240,293.8C480,244,960,143,1440,100.3C1920,57,2400,72,2880,71.7C3360,72,3840,57,4320,71.7C4800,86,5280,129,5760,157.7C6240,186,6720,201,7200,207.8C7680,215,8160,215,8640,236.5C9120,258,9600,301,10080,272.3C10560,244,11040,143,11520,93.2C12000,43,12480,43,12960,35.8C13440,29,13920,14,14400,64.5C14880,115,15360,229,15840,286.7C16320,344,16800,344,17280,336.8C17760,330,18240,315,18720,293.8C19200,272,19680,244,20160,229.3C20640,215,21120,215,21600,200.7C22080,186,22560,158,23040,150.5C23520,143,24000,158,24480,164.8C24960,172,25440,172,25920,207.8C26400,244,26880,315,27360,322.5C27840,330,28320,272,28800,236.5C29280,201,29760,186,30240,179.2C30720,172,31200,172,31680,179.2C32160,186,32640,201,33120,193.5C33600,186,34080,158,34320,143.3L34560,129L34560,430L34320,430C34080,430,33600,430,33120,430C32640,430,32160,430,31680,430C31200,430,30720,430,30240,430C29760,430,29280,430,28800,430C28320,430,27840,430,27360,430C26880,430,26400,430,25920,430C25440,430,24960,430,24480,430C24000,430,23520,430,23040,430C22560,430,22080,430,21600,430C21120,430,20640,430,20160,430C19680,430,19200,430,18720,430C18240,430,17760,430,17280,430C16800,430,16320,430,15840,430C15360,430,14880,430,14400,430C13920,430,13440,430,12960,430C12480,430,12000,430,11520,430C11040,430,10560,430,10080,430C9600,430,9120,430,8640,430C8160,430,7680,430,7200,430C6720,430,6240,430,5760,430C5280,430,4800,430,4320,430C3840,430,3360,430,2880,430C2400,430,1920,430,1440,430C960,430,480,430,240,430L0,430Z"/></svg>